<svg width="252.99" height="47.792" viewBox="0 0 66.937 12.645" xmlns="http://www.w3.org/2000/svg"><defs><clipPath clipPathUnits="userSpaceOnUse" id="a"><path d="M-133.465 578.05h595.28v-841.89h-595.28z" style="stroke-width:.999998"/></clipPath><clipPath clipPathUnits="userSpaceOnUse" id="b"><path d="M-166.192 598.114h595.28v-841.89h-595.28z" style="stroke-width:.999998"/></clipPath><clipPath clipPathUnits="userSpaceOnUse" id="c"><path d="M-179.44 598.027h595.28v-841.89h-595.28z" style="stroke-width:.999998"/></clipPath><clipPath clipPathUnits="userSpaceOnUse" id="d"><path d="M-208.603 598.322h595.28v-841.89h-595.28z" style="stroke-width:.999998"/></clipPath><clipPath clipPathUnits="userSpaceOnUse" id="e"><path d="M-232.394 581.26h595.28v-841.89h-595.28z" style="stroke-width:.999998"/></clipPath><clipPath clipPathUnits="userSpaceOnUse" id="f"><path d="M-256.71 598.114h595.28v-841.89h-595.28z" style="stroke-width:.999998"/></clipPath><clipPath clipPathUnits="userSpaceOnUse" id="g"><path d="M-275.934 582.856h595.28v-841.89h-595.28z" style="stroke-width:.999998"/></clipPath></defs><g transform="matrix(.35278 0 0 -.35278 12.746 5.376)" clip-path="url(#a)"><path d="M0 0c-13.493 0-14.833-16.744-25.116-16.744-3.982 0-6.585 2.805-6.585 6.463 0 3.615 2.603 6.422 6.502 6.422 2.521 0 4.675-1.222 6.546-2.929l2.559 2.929-.003.002 8.498 9.711h-5.153l5.569 9.386h-6.84l-2.942-11.492 3.958.088-3.714-7.117C-19.171-1.082-22.144 0-25.401 0c-6.34 0-10.728-4.594-10.728-10.281 0-5.733 4.388-10.324 11.013-10.324C-11.582-20.605-10-3.859-.16-3.859c4.141 0 6.745-2.807 6.745-6.462 0-3.618-2.604-6.423-6.503-6.423-2.521 0-4.673 1.219-6.544 2.928l-2.559-2.928c2.559-2.6 5.77-3.861 9.305-3.861 6.341 0 10.73 4.591 10.73 10.284C11.014-4.594 6.625 0 0 0" style="fill:#000000;fill-opacity:1;fill-rule:nonzero;stroke:none"/></g><g transform="matrix(.35278 0 0 -.35278 24.291 10.338)" clip-path="url(#b)"><path d="M0 0h-2.158l-10.025 19.575h3.459l7.631-15.172h.058l7.274 15.172H9.67Z" style="fill:#ffffff;fill-opacity:1;fill-rule:nonzero;stroke:none"/></g><g transform="matrix(.35278 0 0 -.35278 28.965 10.307)" clip-path="url(#c)"><path d="M0 0v19.488h13.897v-2.809H3.134v-5.381h8.362v-2.81H3.134V2.81h10.94V0Z" style="fill:#ffffff;fill-opacity:1;fill-rule:nonzero;stroke:none"/></g><g transform="matrix(.35278 0 0 -.35278 39.253 10.411)" clip-path="url(#d)"><path d="M0 0c-7.451 0-11.59 3.873-11.59 9.789 0 5.883 4.435 10.143 11.471 10.143 2.809 0 5.589-.564 8.309-1.688l-.946-2.66c-2.306.975-4.79 1.479-7.097 1.479-5.352 0-8.456-3.077-8.456-7.097 0-4.288 2.956-7.098 8.456-7.098 1.745 0 3.64.267 5.204.772v4.549h-6.594v2.812h9.729V1.744C6.477.799 3.163 0 0 0" style="fill:#ffffff;fill-opacity:1;fill-rule:nonzero;stroke:none"/></g><g transform="matrix(.35278 0 0 -.35278 47.646 4.392)" clip-path="url(#e)"><path d="M0 0c-4.792 0-7.54-3.018-7.54-7.127 0-4.111 2.748-7.067 7.54-7.067 4.79 0 7.541 2.956 7.541 7.067C7.541-3.018 4.79 0 0 0m0-17.063c-6.27 0-10.822 3.815-10.822 9.936 0 5.943 4.465 9.996 10.822 9.996 6.356 0 10.823-4.053 10.823-9.996 0-6.121-4.553-9.936-10.823-9.936" style="fill:#ffffff;fill-opacity:1;fill-rule:nonzero;stroke:none"/></g><g transform="matrix(.35278 0 0 -.35278 56.224 10.338)" clip-path="url(#f)"><path d="M0 0h-2.157L-12.18 19.575h3.457l7.629-15.172h.06L6.24 19.575h3.428z" style="fill:#ffffff;fill-opacity:1;fill-rule:nonzero;stroke:none"/></g><g transform="matrix(.35278 0 0 -.35278 63.005 4.955)" clip-path="url(#g)"><path d="M0 0h-.061l-3.25-6.832h6.74zm7.629-15.171L4.851-9.642h-9.492l-2.631-5.529h-3.52l9.641 19.574h2.303l9.994-19.574z" style="fill:#ffffff;fill-opacity:1;fill-rule:nonzero;stroke:none"/></g></svg>